# xmcd
#
# Track frame offsets:
#	150
#	20210
#	38720
#	64974
#	83087
#	97356
#	115291
#	129221
#	145935
#	163459
#	180106
#	203567
#	216988
#	259002
#	279273
#
# Disc length: 3993 seconds
#
# Revision: 0
# Processed by: cddbd v1.5.2PL0 Copyright (c) Steve Scherf et al.
# Submitted via: dBpowerAMP V4.0
#
DISCID=db0f970f
DTITLE=Shooter Jennings and The .357's - Bad Magick - The Best Of Shooter Jennings and The .357's
DYEAR=2009
DGENRE=Country
TTITLE0=4th Of July
TTITLE1=Gone To Carolina
TTITLE2=Southern Comfort
TTITLE3=The Wolf
TTITLE4=Manifesto No. 1
TTITLE5=Walk Of Life
TTITLE6=It Ain't Easy
TTITLE7=This Ol Wheel
TTITLE8=Busted In Baylor County
TTITLE9=Slow Train
TTITLE10=Bad Magick
TTITLE11=Steady At The Wheel
TTITLE12=Daddy's Farm (LIVE)
TTITLE13=Lonesome Blues (LIVE)
TTITLE14=Living Proof
EXTD=
EXTT0=
EXTT1=
EXTT2=
EXTT3=
EXTT4=
EXTT5=
EXTT6=
EXTT7=
EXTT8=
EXTT9=
EXTT10=
EXTT11=
EXTT12=
EXTT13=
EXTT14=
PLAYORDER=
